# xmcd
#
# Track frame offsets: 
#        150
#        13640
#        29351
#        42439
#        54594
#        68271
#        82682
#        99284
#        114802
#        127264
#        145600
#        160384
#        172556
#        191454
#        202042
#        216812
#        230488
#        244616
#
# Disc length: 3440 seconds
#
# Revision: 0
# Processed by: cddbd v1.5.1PL0 Copyright (c) Steve Scherf et al.
# Submitted via: ExactAudioCopy v0.95a5
#
DISCID=df0d6e12
DTITLE=Tony Christie - My Country World Classics
DYEAR=1998
DGENRE=Country
TTITLE0=Is This The Way To Amarillo
TTITLE1=I Did What I Did For Maria
TTITLE2=Rhinestone Cowboy
TTITLE3=Some Broken Hearts Never Mend
TTITLE4=Ruby
TTITLE5=I'm So Lonesome I Could Cry
TTITLE6=Country Roads
TTITLE7=Release Me
TTITLE8=Blue Bajou
TTITLE9=Lucille
TTITLE10=Jambalaya
TTITLE11=Oh Lonesome Me
TTITLE12=I Can't Stop Loving You
TTITLE13=I Really Had A Ball Last Night
TTITLE14=Sea Of Heartbreak
TTITLE15=Gipsy Woman
TTITLE16=Funny Familiar Forgotten Feelings
TTITLE17=Six Days On A Road
EXTD=
EXTT0=
EXTT1=
EXTT2=
EXTT3=
EXTT4=
EXTT5=
EXTT6=
EXTT7=
EXTT8=
EXTT9=
EXTT10=
EXTT11=
EXTT12=
EXTT13=
EXTT14=
EXTT15=
EXTT16=
EXTT17=
PLAYORDER=
